<svg width="44" height="42" viewBox="0 0 44 42" fill="none" xmlns="http://www.w3.org/2000/svg">
<path fill-rule="evenodd" clip-rule="evenodd" d="M37.8668 0.625004C37.9039 0.625006 37.9411 0.625009 37.9785 0.625009H41.3125C42.3826 0.625009 43.25 1.49246 43.25 2.56251C43.25 3.63256 42.3826 4.50001 41.3125 4.50001H37.9785C36.4091 4.50001 35.408 4.50341 34.6591 4.59536C33.9631 4.68081 33.7189 4.81988 33.5734 4.93916C33.4279 5.05844 33.2436 5.27061 33.0233 5.93634C32.7863 6.65273 32.5867 7.63364 32.2789 9.17258L31.5874 12.63C31.3775 13.6793 30.3568 14.3597 29.3075 14.1499C28.2583 13.94 27.5778 12.9193 27.7876 11.87L28.4791 8.41263C28.4864 8.37599 28.4937 8.33947 28.501 8.30307C28.7804 6.90565 29.0238 5.68816 29.3445 4.71905C29.6903 3.67404 30.1908 2.70148 31.1167 1.94246C32.0425 1.18344 33.0944 0.883362 34.1869 0.749234C35.2001 0.624847 36.4417 0.62492 37.8668 0.625004Z" fill="white"/>
<path d="M3.85926 15.4234C4.16357 12.0759 4.31572 10.4022 5.42566 9.38861C6.5356 8.375 8.21621 8.375 11.5774 8.375H32.3642C34.6941 8.375 35.859 8.375 36.4406 9.13645C37.0222 9.8979 36.7157 11.0218 36.1026 13.2696L33.1825 23.9767C32.4335 26.7232 32.0589 28.0965 31.0174 28.892C29.9759 29.6875 28.5525 29.6875 25.7056 29.6875H11.049C7.08087 29.6875 5.0968 29.6875 3.94438 28.4256C2.79196 27.1636 2.97159 25.1877 3.33085 21.2358L3.85926 15.4234Z" fill="white"/>
<path d="M29.6875 35.5C29.6875 37.6401 27.9526 39.375 25.8125 39.375C23.6724 39.375 21.9375 37.6401 21.9375 35.5C21.9375 33.3599 23.6724 31.625 25.8125 31.625C27.9526 31.625 29.6875 33.3599 29.6875 35.5Z" fill="white"/>
<path d="M8.375 35.5C8.375 37.6401 6.6401 39.375 4.5 39.375C2.3599 39.375 0.625 37.6401 0.625 35.5C0.625 33.3599 2.3599 31.625 4.5 31.625C6.6401 31.625 8.375 33.3599 8.375 35.5Z" fill="white"/>
<path d="M35.5 35.5C35.5 37.6401 33.7651 39.375 31.625 39.375C29.4849 39.375 27.75 37.6401 27.75 35.5C27.75 33.3599 29.4849 31.625 31.625 31.625C33.7651 31.625 35.5 33.3599 35.5 35.5Z" fill="white"/>
<path fill-rule="evenodd" clip-rule="evenodd" d="M37.4375 35.5C37.4375 38.7102 34.8352 41.3125 31.625 41.3125C28.4148 41.3125 25.8125 38.7102 25.8125 35.5C25.8125 32.2898 28.4148 29.6875 31.625 29.6875C34.8352 29.6875 37.4375 32.2898 37.4375 35.5ZM31.625 39.375C33.7651 39.375 35.5 37.6401 35.5 35.5C35.5 33.3599 33.7651 31.625 31.625 31.625C29.4849 31.625 27.75 33.3599 27.75 35.5C27.75 37.6401 29.4849 39.375 31.625 39.375Z" fill="#C96408"/>
<path d="M14.1875 35.5C14.1875 37.6401 12.4526 39.375 10.3125 39.375C8.1724 39.375 6.4375 37.6401 6.4375 35.5C6.4375 33.3599 8.1724 31.625 10.3125 31.625C12.4526 31.625 14.1875 33.3599 14.1875 35.5Z" fill="white"/>
<path fill-rule="evenodd" clip-rule="evenodd" d="M16.125 35.5C16.125 38.7102 13.5227 41.3125 10.3125 41.3125C7.10234 41.3125 4.5 38.7102 4.5 35.5C4.5 32.2898 7.10234 29.6875 10.3125 29.6875C13.5227 29.6875 16.125 32.2898 16.125 35.5ZM10.3125 39.375C12.4526 39.375 14.1875 37.6401 14.1875 35.5C14.1875 33.3599 12.4526 31.625 10.3125 31.625C8.1724 31.625 6.4375 33.3599 6.4375 35.5C6.4375 37.6401 8.1724 39.375 10.3125 39.375Z" fill="#C96408"/>
</svg>
